<svg xmlns="http://www.w3.org/2000/svg" version="1.1" viewBox="0 0 534 400">
	<rect width="534" height="400" fill="#0076a8"/>
	<path d="m347.95 133c-5.17 11.437-13.95 29.436-16.927 33.039-4.387 4.23-8.133 3.458-12.207 5.338l-6.12 3.613-27.408 19.433 35.417 12.825 4.395 3.45s8.917 9.726 14.714 14.583 7.999 1.885 13.639 7.682c6.267 6.58 17.997 26.006 22.07 29.296 1.88 1.567 2.824 2.329 3.45 2.799 0.94 0.783 1.723 1.27 2.507 1.27l0.163-0.167c10.968 0 46.223-108.72 46.223-108.72s-16.91 20.341-28.19 19.401c-3.134-0.313-6.441-1.397-10.514-4.687-4.074-3.29-8.766-8.629-14.876-17.089-4.544-6.424-11.118-11.903-16.602-15.82s-9.733-6.25-9.733-6.25zm-241.83 0.652v133.33h33.333v-86.162l50 49.998 50-49.998v86.162h33.333v-133.33h-33.333l-50 49.998-50-49.998z" fill="#ffffff"/>
</svg>
